<svg width="430" height="430" viewBox="0 0 430 430" fill="none" xmlns="http://www.w3.org/2000/svg">
    <path d="M41.38 215C41.38 310.742 119.258 388.62 215 388.62C310.742 388.62 388.62 310.742 388.62 215C388.62 119.258 310.742 41.38 215 41.38C119.258 41.38 41.38 119.258 41.38 215ZM68.38 215C68.38 134.162 134.162 68.38 215 68.38C295.838 68.38 361.62 134.162 361.62 215C361.62 295.838 295.838 361.62 215 361.62C134.162 361.62 68.38 295.838 68.38 215Z" fill="#A0A5AB" stroke="#A0A5AB" stroke-width="15"/>
    <path d="M134.577 261.5H295.414C308.685 261.5 317.5 249.271 317.5 236.856V193.144C317.5 180.735 308.698 168.5 295.423 168.5H134.577C121.302 168.5 112.5 180.735 112.5 193.144V236.856C112.5 249.265 121.302 261.5 134.577 261.5ZM137.611 195.382H292.389V234.598H137.611V195.382Z" fill="#A0A5AB" stroke="#A0A5AB" stroke-width="15"/>
</svg>
